#!OML:ASF \\sashay\E\basketball\basketball\Project 1\Capture day 1\Session 1\Subject.ASF
:FULLY-SPECIFIED
:DEGREES
135
root 26.1983 14.6868 -25.865 -194.851 46.8427 -191.503
lowerback 8.79689 6.71174 -8.22363
upperback 5.99026 8.78706 -0.799484
thorax 0.331812 4.39981 2.90708
lowerneck 3.95812 -12.1085 -20.9753
upperneck -15.9612 -14.1777 31.1097
head -0.853202 -7.32664 13.573
rclavicle 9.97899e-014 -8.34896e-015
rhumerus -22.7626 -17.6763 -80.4516
rradius 36.5348
rwrist 3.90202
rhand -19.8088 23.0271
rfingers 7.12502
rthumb 6.52442 -6.8524
lclavicle 9.97899e-014 -8.34896e-015
lhumerus -19.4021 6.2422 84.4488
lradius 119.997
lwrist -0.985551
lhand -43.5642 -17.0699
lfingers 7.12502
lthumb -16.4016 12.2566
rfemur 3.49527 -6.41274 -3.88773
rtibia 92.4926
rfoot -6.93234 -2.11992
rtoes -27.998
lfemur -23.4593 1.26912 -22.0634
ltibia 49.7982
lfoot -6.10914 -13.2516
ltoes 36.8542
136
root 26.5112 14.6574 -26.1055 -193.864 48.6745 -189.085
lowerback 9.74161 6.42041 -5.94206
upperback 6.16717 8.49803 -0.467192
thorax 0.274746 4.30657 1.96574
lowerneck 4.90654 -11.5752 -20.2191
upperneck -17.1766 -13.2111 31.0153
head -1.68698 -6.94847 13.6985
rclavicle 4.50247e-014 -2.18663e-014
rhumerus -23.0087 -15.9952 -82.15
rradius 35.721
rwrist 4.59736
rhand -19.8197 23.2635
rfingers 7.12502
rthumb 6.51391 -6.61632
lclavicle 4.50247e-014 -2.18663e-014
lhumerus -18.599 7.3608 84.6445
lradius 124.163
lwrist 23.4869
lhand -32.3358 -23.4994
lfingers 7.12502
lthumb -5.57296 6.40735
rfemur 0.201205 -5.0686 0.445159
rtibia 94.4386
rfoot -7.4604 -3.38933
rtoes -26.914
lfemur -21.6338 2.73971 -19.6653
ltibia 51.5892
lfoot -7.08355 -13.6565
ltoes 42.5038
137
root 26.8207 14.6483 -26.3397 -194.746 50.0344 -190.34
lowerback 9.78671 6.14209 -6.52189
upperback 6.14488 8.07623 -0.695654
thorax 0.222285 4.08593 2.08746
lowerneck 6.72643 -10.7978 -19.9596
upperneck -19.1984 -11.8877 31.2189
head -2.93035 -6.44519 14.2099
rclavicle 9.14409e-014 -7.55382e-015
rhumerus -23.4261 -11.7189 -84.6193
rradius 34.4495
rwrist 5.19138
rhand -19.7623 23.3791
rfingers 7.12502
rthumb 6.56931 -6.49903
lclavicle 9.14409e-014 -7.55382e-015
lhumerus -17.977 7.0107 85.103
lradius 123.491
lwrist 24.2628
lhand -32.2491 -20.3023
lfingers 7.12502
lthumb -5.48925 9.60663
rfemur -4.16545 -3.89214 1.58396
rtibia 96.2559
rfoot -8.27385 -3.77376
rtoes -23.1299
lfemur -20.2974 4.11085 -20.1687
ltibia 52.703
lfoot -9.13226 -13.7254
ltoes 43.5452
138
root 27.1357 14.6528 -26.5705 -195.562 51.5368 -191.701
lowerback 9.60131 5.94099 -7.14227
upperback 6.00435 7.75211 -0.900884
thorax 0.158307 3.9091 2.26093
lowerneck 6.32091 -10.6848 -19.5138
upperneck -18.2106 -11.9599 30.3656
head -2.69639 -6.45723 13.6805
rclavicle 7.00219e-014 -1.47101e-014
rhumerus -23.8406 -10.0616 -85.7917
rradius 33.7926
rwrist 5.50999
rhand -19.7118 23.3995
rfingers 7.12502
rthumb 6.61802 -6.47711
lclavicle 7.00219e-014 -1.47101e-014
lhumerus -19.3424 23.8949 80.2974
lradius 100.088
lwrist -140.768
lhand 5.3198 92.9455
lfingers 7.12502
lthumb 30.675 -65.4826
rfemur -8.93492 -2.404 2.98241
rtibia 97.5431
rfoot -9.00145 -3.99205
rtoes -15.8219
lfemur -18.8821 5.56205 -20.5732
ltibia 53.4445
lfoot -11.1703 -14.2333
ltoes 43.456
139
root 27.4594 14.68 -26.8112 -195.741 53.0616 -192.221
lowerback 9.40002 5.65699 -7.21823
upperback 5.7802 7.34415 -0.942982
thorax 0.0639927 3.69751 2.31448
lowerneck 6.32571 -10.2735 -18.9369
upperneck -17.5417 -11.5659 29.4741
head -2.75798 -6.26384 13.2351
rclavicle 3.59303e-014 -1.07344e-014
rhumerus -24.3214 -10.4962 -85.8993
rradius 33.4227
rwrist 5.92904
rhand -19.7152 23.4223
rfingers 7.12502
rthumb 6.61473 -6.45441
lclavicle 3.59303e-014 -1.07344e-014
lhumerus -19.2016 22.9153 81.0133
lradius 89.3336
lwrist -139.245
lhand 9.05345 90.8466
lfingers 7.12502
lthumb 34.228 -64.1137
rfemur -13.5484 -0.934402 5.11706
rtibia 98.295
rfoot -9.94627 -4.24602
rtoes -5.43553
lfemur -17.1216 6.51324 -20.4279
ltibia 53.4712
lfoot -12.8895 -14.5402
ltoes 43.114
140
root 27.7735 14.6627 -27.0474 -195.279 54.379 -192.313
lowerback 8.80802 5.16528 -7.13734
upperback 5.54965 6.70267 -0.965419
thorax 0.211544 3.3627 2.36718
lowerneck 6.0825 -9.73688 -18.5405
upperneck -16.6182 -10.9482 29.0442
head -2.69157 -5.94655 12.9825
rclavicle -8.44835e-016 -6.75868e-015
rhumerus -24.6239 -12.8857 -85.1253
rradius 33.6015
rwrist 6.42669
rhand -19.6973 23.4227
rfingers 7.12502
rthumb 6.63208 -6.4534
lclavicle -8.44835e-016 -6.75868e-015
lhumerus -19.239 23.2438 80.4707
lradius 86.0201
lwrist -135.768
lhand 11.3123 -86.1558
lfingers 7.12502
lthumb 36.3699 -59.931
rfemur -16.0099 -0.358377 7.58924
rtibia 96.833
rfoot -9.14604 -8.62732
rtoes -26.481
lfemur -15.9522 6.78752 -20.1965
ltibia 53.5699
lfoot -14.0225 -14.4903
ltoes 43.4458
141
root 28.1252 14.7421 -27.2919 -196.564 53.3993 -192.863
lowerback 9.83959 4.29123 -7.45947
upperback 5.7379 5.47192 -1.10099
thorax -0.0473385 2.76357 2.46575
lowerneck 6.67196 -9.76308 -19.7495
upperneck -16.5557 -11.1733 30.1155
head -2.53402 -6.10803 13.6407
rclavicle -7.51903e-014 6.36111e-015
rhumerus -25.2932 -14.5952 -84.4567
rradius 33.7797
rwrist 6.4415
rhand -19.6722 23.3504
rfingers 7.12502
rthumb 6.65623 -6.52502
lclavicle -7.51903e-014 6.36111e-015
lhumerus -17.7638 21.8779 81.6203
lradius 82.4097
lwrist -132.114
lhand 13.8875 -81.4204
lfingers 7.12502
lthumb 38.8035 -55.8443
rfemur -18.1193 -0.45654 8.55164
rtibia 96.1374
rfoot -12.6122 -5.80382
rtoes -3.84892
lfemur -12.8807 5.17849 -20.759
ltibia 52.9849
lfoot -14.2374 -14.2571
ltoes 44.0762
142
root 28.4657 14.7441 -27.5078 -197.462 54.0414 -194.632
lowerback 9.15595 3.96002 -8.77874
upperback 5.60722 4.97643 -1.25027
thorax 0.160292 2.47877 3.13744
lowerneck 6.23181 -9.58549 -19.7171
upperneck -15.8769 -11.0452 29.7339
head -2.34343 -6.00523 13.4225
rclavicle 2.63887e-014 -2.78299e-014
rhumerus -25.8079 -15.7505 -83.7724
rradius 33.7447
rwrist 6.40717
rhand -19.6947 23.3251
rfingers 7.12502
rthumb 6.63454 -6.55098
lclavicle 2.63887e-014 -2.78299e-014
lhumerus -16.9347 20.9292 82.3661
lradius 78.7614
lwrist -126.888
lhand 17.8917 -75.5623
lfingers 7.12502
lthumb 42.5662 -51.1649
rfemur -21.0503 0.0231041 9.53539
rtibia 94.0244
rfoot -12.2712 -7.76951
rtoes -19.7125
lfemur -10.879 4.93174 -21.7222
ltibia 50.7323
lfoot -13.5759 -12.7012
ltoes 43.7393
143
root 28.7984 14.7662 -27.7431 -197.921 53.8758 -195.442
lowerback 9.13386 3.35219 -9.21228
upperback 5.26803 4.09699 -1.43853
thorax -0.0910939 2.04317 3.26652
lowerneck 5.75174 -9.28949 -19.0449
upperneck -14.422 -10.8613 28.7828
head -2.04654 -5.87253 12.8319
rclavicle -7.91163e-014 1.66979e-014
rhumerus -27.2232 -16.8495 -82.9298
rradius 33.8753
rwrist 6.48257
rhand -19.6944 23.3092
rfingers 7.12502
rthumb 6.63486 -6.56683
lclavicle -7.91163e-014 1.66979e-014
lhumerus -17.3094 19.8578 82.5654
lradius 75.0016
lwrist -119.65
lhand 23.648 -68.0729
lfingers 7.12502
lthumb 47.9171 -45.8215
rfemur -23.0503 -0.0986688 10.5168
rtibia 91.7385
rfoot -13.494 -7.99719
rtoes -21.2863
lfemur -7.79148 3.67796 -22.4812
ltibia 46.929
lfoot -12.4306 -10.5445
ltoes 44.1993
144
root 29.1376 14.7668 -27.9638 -198.943 53.552 -196.449
lowerback 9.43992 2.79007 -9.91915
upperback 4.98727 3.23271 -1.62949
thorax -0.463472 1.62279 3.52972
lowerneck 5.67909 -8.96373 -18.4576
upperneck -13.0906 -10.6691 27.9364
head -1.83669 -5.76323 12.3499
rclavicle 3.44394e-014 1.82882e-014
rhumerus -29.0046 -18.036 -81.8078
rradius 34.2393
rwrist 6.36524
rhand -19.6634 23.165
rfingers 7.12502
rthumb 6.66473 -6.71012
lclavicle 3.44394e-014 1.82882e-014
lhumerus -18.0243 18.8871 82.2291
lradius 70.8207
lwrist -108.99
lhand 31.9759 -57.4325
lfingers 7.12502
lthumb 55.474 -39.6423
rfemur -23.3597 -0.561139 11.7864
rtibia 88.045
rfoot -5.93478 -15.3751
rtoes -52.3709
lfemur -1.15416 -1.89348 -26.0042
ltibia 40.4846
lfoot -25.7997 -12.6644
ltoes 49.0767
145
root 29.4883 14.7702 -28.1792 -200.035 53.4991 -197.632
lowerback 10.5804 2.48711 -10.5566
upperback 3.86983 2.49045 -2.00319
thorax -2.17646 1.34072 3.50502
lowerneck 6.61661 -8.54986 -18.0136
upperneck -11.4525 -10.5345 27.3131
head -1.67721 -5.74615 12.0373
rclavicle 5.53615e-014 -1.21259e-014
rhumerus -32.2681 -18.9004 -80.6055
rradius 34.6775
rwrist 6.11361
rhand -19.6602 23.0542
rfingers 7.12502
rthumb 6.66784 -6.82077
lclavicle 5.53615e-014 -1.21259e-014
lhumerus -20.1555 16.3307 81.489
lradius 66.5582
lwrist -93.58
lhand 41.7337 -40.4869
lfingers 7.12502
lthumb 63.8158 -31.454
rfemur -26.3983 0.316257 12.6358
rtibia 85.9481
rfoot -11.7457 -11.5525
rtoes -42.2799
lfemur 4.32973 -7.38477 -29.3314
ltibia 34.7296
lfoot -32.7218 -10.5068
ltoes 50.5514
146
root 29.8478 14.8258 -28.404 -199.87 54.0282 -197.439
lowerback 10.8312 2.19713 -9.93654
upperback 3.38456 2.06916 -2.28295
thorax -2.74733 1.16292 2.90662
lowerneck 7.05691 -8.43957 -17.6663
upperneck -10.3946 -10.585 27.2546
head -1.48466 -5.79683 11.9326
rclavicle 2.85132e-014 3.51849e-014
rhumerus -34.2909 -20.0179 -79.9957
rradius 34.8213
rwrist 6.27843
rhand -19.6457 23.0891
rfingers 7.12502
rthumb 6.68182 -6.7855
lclavicle 2.85132e-014 3.51849e-014
lhumerus -21.6183 12.2211 81.3929
lradius 62.4985
lwrist -72.9531
lhand 46.2035 -13.9418
lfingers 7.12502
lthumb 67.2919 -11.1122
rfemur -28.7928 1.58193 14.4728
rtibia 82.6983
rfoot -13.6872 -8.38674
rtoes -27.5262
lfemur 9.4301 -10.4785 -30.4887
ltibia 28.552
lfoot -33.2032 -7.79118
ltoes 50.6155
147
root 30.2288 14.9628 -28.6809 -201.132 54.4809 -198.662
lowerback 10.1717 1.84872 -9.90806
upperback 3.75153 1.74642 -2.70051
thorax -1.94099 0.975168 2.52475
lowerneck 6.8059 -8.44694 -17.5508
upperneck -9.76749 -10.6454 27.4176
head -1.24945 -5.80942 11.9241
rclavicle -3.60421e-014 2.45499e-014
rhumerus -34.7993 -20.5119 -79.9904
rradius 34.6202
rwrist 6.59836
rhand -19.6334 23.161
rfingers 7.12502
rthumb 6.6937 -6.71315
lclavicle -3.60421e-014 2.45499e-014
lhumerus -22.5932 7.73279 82.1026
lradius 59.4335
lwrist -50.2778
lhand 36.3595 11.8123
lfingers 7.12502
lthumb 59.3151 26.2921
rfemur -29.199 2.39147 15.0623
rtibia 78.2627
rfoot -14.8283 -8.02178
rtoes -26.8841
lfemur 12.6306 -8.0455 -29.8603
ltibia 25.6376
lfoot -25.528 -7.4395
ltoes 50.3776
148
root 30.6128 15.1204 -28.9476 -202.451 54.9569 -199.541
lowerback 9.20397 1.1803 -10.5302
upperback 5.05013 1.10309 -2.26686
thorax 0.0339086 0.543021 3.43468
lowerneck 4.75237 -8.37201 -18.6837
upperneck -9.13034 -10.5251 27.5162
head -0.655923 -5.58536 12.0195
rclavicle 6.80837e-014 1.76918e-014
rhumerus -32.969 -19.6797 -79.7877
rradius 34.1441
rwrist 6.95108
rhand -19.6225 23.2409
rfingers 7.12502
rthumb 6.70421 -6.63299
lclavicle 6.80837e-014 1.76918e-014
lhumerus -20.0117 3.90669 85.1832
lradius 57.4589
lwrist -31.5625
lhand 20.5925 25.173
lfingers 7.12502
lthumb 45.0866 48.6384
rfemur -28.7203 3.49511 15.8977
rtibia 73.0542
rfoot -16.2196 -7.99775
rtoes -27.7351
lfemur 15.1856 -6.3066 -29.1755
ltibia 24.5238
lfoot -18.6445 -6.4303
ltoes 50.7938
149
root 30.9726 15.2252 -29.1998 -202.51 55.5974 -199.393
lowerback 9.3879 0.75919 -9.97706
upperback 4.92949 0.534825 -2.15671
thorax -0.124913 0.269914 3.29506
lowerneck 4.46933 -8.22926 -19.4244
upperneck -8.14598 -10.5274 27.7891
head -0.271632 -5.54779 12.2086
rclavicle 3.23025e-015 -2.22639e-014
rhumerus -33.844 -19.7512 -78.9349
rradius 34.0864
rwrist 6.98554
rhand -19.6077 23.2524
rfingers 7.12502
rthumb 6.7185 -6.62106
lclavicle 3.23025e-015 -2.22639e-014
lhumerus -20.5176 1.12343 85.6123
lradius 56.3967
lwrist -17.4476
lhand 6.81979 29.6813
lfingers 7.12502
lthumb 32.1041 56.8663
rfemur -29.0399 3.51185 17.158
rtibia 67.8973
rfoot -16.1853 -5.60493
rtoes -21.2179
lfemur 17.0291 -5.98199 -28.5349
ltibia 23.9535
lfoot -15.0734 -5.00282
ltoes 50.9226
